Traitor 2008 720p BRRip H264 AAC-Rx(Phoenix-RG).mp4
      Format : MPEG-4/ AVC
      File size : 1.69 GiB
      Duration : 1h 54mn
      Bit rate mode : Variable
      Bit rate : 1 800 Kbps
      Maximum bit rate : 14.4 Mbps
      Width : 1 280 pixels
      Height : 528 pixels
      Display aspect ratio : 2.424
      Frame rate mode : Constant
      Frame rate : 23.976 fps
      Resolution : 24 bits
      Colorimetry : 4:2:0
      Scan type : Progressive
      Bits/(Pixel*Frame) : 0.111
      Stream size : 1.43 GiB (85%)
    
AUDIO:
      Format : AAC / LC
      Duration : 1h 54mn
      Bit rate mode : Variable
      Bit rate : 321 Kbps
      Maximum bit rate : 442 Kbps
      Channel(s) : 6 channels
      Channel positions : Front: L C R, Rear: L R, LFE
      Sampling rate : 48.0 KHz
      Resolution : 16 bits
      Stream size : 262 MiB (15%)



SCREENS:
 
http://img823.imageshack.us/img823/184/vlcsnap2011021711h58m02.png
 
http://img208.imageshack.us/img208/595/vlcsnap2011021712h02m50.jpg
 
http://img202.imageshack.us/img202/7138/vlcsnap2011021712h02m58.png